<?xml version="1.0" encoding="UTF-8" standalone="no"?>
<!DOCTYPE svg PUBLIC "-//W3C//DTD SVG 1.1//EN" "http://www.w3.org/Graphics/SVG/1.1/DTD/svg11.dtd">
<svg xmlns="http://www.w3.org/2000/svg" version="1.1" viewBox="0.00 0.00 114.00 80.00">
<g stroke-width="2.00" fill="none" stroke-linecap="butt">
<path stroke="#808080" vector-effect="non-scaling-stroke" d="
  M 75.94 31.55
  C 62.16 23.94 47.83 16.47 33.03 11.17
  C 25.57 8.50 12.74 5.40 8.96 15.65
  Q 7.80 18.77 7.75 21.50
  Q 7.56 31.55 7.73 67.03
  A 0.91 0.91 0.0 0 0 8.63 67.93
  L 12.50 67.97
  A 0.95 0.94 -89.4 0 0 13.46 67.02
  Q 13.40 45.68 13.59 24.00
  C 13.69 11.52 22.32 13.63 30.50 16.47
  C 46.32 21.97 61.39 30.06 75.99 38.14
  Q 76.68 38.52 76.68 37.74
  L 76.66 32.77
  Q 76.66 31.95 75.94 31.55"
/>
<path stroke="#808080" vector-effect="non-scaling-stroke" d="
  M 70.24 57.80
  Q 54.02 50.09 38.62 41.48
  A 0.59 0.59 0.0 0 0 37.74 42.01
  L 37.83 46.57
  A 1.84 1.82 -76.2 0 0 38.77 48.14
  C 53.07 56.02 67.98 63.83 83.54 68.89
  Q 88.52 70.51 93.75 70.72
  C 105.56 71.21 106.56 61.35 106.53 52.50
  Q 106.47 32.14 106.52 11.72
  A 0.27 0.26 -0.0 0 0 106.25 11.46
  L 100.99 11.46
  A 0.31 0.31 0.0 0 0 100.68 11.77
  Q 100.69 32.61 100.66 53.50
  C 100.65 59.37 99.66 66.33 92.22 65.02
  Q 81.43 63.12 70.24 57.80"
/>
</g>
<path fill="#000000" d="
  M 0.00 0.00
  L 114.00 0.00
  L 114.00 80.00
  L 0.00 80.00
  L 0.00 0.00
  Z
  M 75.94 31.55
  C 62.16 23.94 47.83 16.47 33.03 11.17
  C 25.57 8.50 12.74 5.40 8.96 15.65
  Q 7.80 18.77 7.75 21.50
  Q 7.56 31.55 7.73 67.03
  A 0.91 0.91 0.0 0 0 8.63 67.93
  L 12.50 67.97
  A 0.95 0.94 -89.4 0 0 13.46 67.02
  Q 13.40 45.68 13.59 24.00
  C 13.69 11.52 22.32 13.63 30.50 16.47
  C 46.32 21.97 61.39 30.06 75.99 38.14
  Q 76.68 38.52 76.68 37.74
  L 76.66 32.77
  Q 76.66 31.95 75.94 31.55
  Z
  M 70.24 57.80
  Q 54.02 50.09 38.62 41.48
  A 0.59 0.59 0.0 0 0 37.74 42.01
  L 37.83 46.57
  A 1.84 1.82 -76.2 0 0 38.77 48.14
  C 53.07 56.02 67.98 63.83 83.54 68.89
  Q 88.52 70.51 93.75 70.72
  C 105.56 71.21 106.56 61.35 106.53 52.50
  Q 106.47 32.14 106.52 11.72
  A 0.27 0.26 -0.0 0 0 106.25 11.46
  L 100.99 11.46
  A 0.31 0.31 0.0 0 0 100.68 11.77
  Q 100.69 32.61 100.66 53.50
  C 100.65 59.37 99.66 66.33 92.22 65.02
  Q 81.43 63.12 70.24 57.80
  Z"
/>
<path fill="#ffffff" d="
  M 33.03 11.17
  C 47.83 16.47 62.16 23.94 75.94 31.55
  Q 76.66 31.95 76.66 32.77
  L 76.68 37.74
  Q 76.68 38.52 75.99 38.14
  C 61.39 30.06 46.32 21.97 30.50 16.47
  C 22.32 13.63 13.69 11.52 13.59 24.00
  Q 13.40 45.68 13.46 67.02
  A 0.95 0.94 -89.4 0 1 12.50 67.97
  L 8.63 67.93
  A 0.91 0.91 0.0 0 1 7.73 67.03
  Q 7.56 31.55 7.75 21.50
  Q 7.80 18.77 8.96 15.65
  C 12.74 5.40 25.57 8.50 33.03 11.17
  Z"
/>
<path fill="#ffffff" d="
  M 70.24 57.80
  Q 81.43 63.12 92.22 65.02
  C 99.66 66.33 100.65 59.37 100.66 53.50
  Q 100.69 32.61 100.68 11.77
  A 0.31 0.31 0.0 0 1 100.99 11.46
  L 106.25 11.46
  A 0.27 0.26 0.0 0 1 106.52 11.72
  Q 106.47 32.14 106.53 52.50
  C 106.56 61.35 105.56 71.21 93.75 70.72
  Q 88.52 70.51 83.54 68.89
  C 67.98 63.83 53.07 56.02 38.77 48.14
  A 1.84 1.82 -76.2 0 1 37.83 46.57
  L 37.74 42.01
  A 0.59 0.59 0.0 0 1 38.62 41.48
  Q 54.02 50.09 70.24 57.80
  Z"
/>
</svg>
